<svg xmlns="http://www.w3.org/2000/svg" viewBox="0 0 240 260" width="240" height="260">
  <ellipse cx="120" cy="248" rx="55" ry="10" fill="#00000020"/>
  <path d="M58 150 Q10 130 5 80 Q20 110 35 100 Q10 70 15 35 Q30 65 45 55 Q22 30 40 15 Q45 45 60 40 Q48 20 68 10 Q62 40 75 45 Q68 28 82 22 Q78 48 85 65 Q80 55 88 75" fill="#2A8E80"/>
  <path d="M55 145 Q15 115 10 72" fill="none" stroke="#1E7A6E" stroke-width="3"/>
  <path d="M60 140 Q28 100 22 55" fill="none" stroke="#1E7A6E" stroke-width="2.5"/>
  <path d="M65 135 Q40 90 42 42" fill="none" stroke="#1E7A6E" stroke-width="2"/>
  <path d="M70 130 Q55 80 60 35" fill="none" stroke="#238276" stroke-width="1.5"/>
  <ellipse cx="120" cy="165" rx="52" ry="50" fill="#C4834A"><animate attributeName="ry" values="50;48;50" dur="2s" repeatCount="indefinite"/></ellipse>
  <ellipse cx="130" cy="168" rx="36" ry="34" fill="#D4975E"/>
  <path d="M85 155 Q95 148 105 155" fill="none" stroke="#B07040" stroke-width="1.5" opacity="0.4"/>
  <path d="M88 168 Q98 161 108 168" fill="none" stroke="#B07040" stroke-width="1.5" opacity="0.4"/>
  <path d="M90 180 Q100 173 110 180" fill="none" stroke="#B07040" stroke-width="1.5" opacity="0.4"/>
  <ellipse cx="72" cy="162" rx="18" ry="32" fill="#B07040" transform="rotate(-5 72 162)"/>
  <ellipse cx="168" cy="162" rx="18" ry="32" fill="#B07040" transform="rotate(5 168 162)"/>
  <ellipse cx="120" cy="122" rx="26" ry="22" fill="#C4834A"/>
  <circle cx="122" cy="95" r="30" fill="#C4834A"/>
  <path d="M114 118 Q108 138 100 148 Q112 142 118 125" fill="#D44A2A"/>
  <path d="M116 120 Q112 134 106 142" fill="#C43A1A"/>
  <ellipse cx="105" cy="145" rx="6" ry="5" fill="#D44A2A"/>
  <path d="M142 94 L160 98 L142 104 Z" fill="#E8A03C"/>
  <path d="M142 99 L158 102 L142 106 Z" fill="#D4902C"/>
  <rect x="100" y="85" width="20" height="18" rx="4" fill="none" stroke="#333" stroke-width="3"/>
  <rect x="124" y="85" width="20" height="18" rx="4" fill="none" stroke="#333" stroke-width="3"/>
  <line x1="120" y1="94" x2="124" y2="94" stroke="#333" stroke-width="2.5"/>
  <line x1="96" y1="94" x2="100" y2="94" stroke="#333" stroke-width="2"/>
  <line x1="144" y1="92" x2="155" y2="86" stroke="#333" stroke-width="2"/>
  <circle cx="110" cy="94" r="5" fill="white"/>
  <circle cx="134" cy="94" r="5" fill="white"/>
  <circle cx="112" cy="94.5" r="3.2" fill="#2D2520"/>
  <circle cx="136" cy="94.5" r="3.2" fill="#2D2520"/>
  <circle cx="113" cy="93" r="1.2" fill="white"/>
  <circle cx="137" cy="93" r="1.2" fill="white"/>
  <path d="M104 68 Q90 40 102 26 Q106 44 112 36 Q114 20 124 16 Q120 38 128 30 Q132 40 130 52 Q132 44 136 50 Q134 58 128 66 Q124 70 118 72" fill="#D44A2A"/>
  <path d="M108 42 Q116 28 124 24" fill="none" stroke="#C43A1A" stroke-width="2"/>
  <ellipse cx="118" cy="76" rx="32" ry="11" fill="#2B4A8C"/>
  <path d="M88 76 Q88 58 118 56 Q148 58 148 76" fill="#2B4A8C"/>
  <circle cx="118" cy="58" r="5" fill="#2B4A8C"/>
  <circle cx="140" cy="72" r="6.5" fill="#1B3A7C"/>
  <circle cx="140" cy="72" r="5" fill="white"/>
  <circle cx="140" cy="72" r="3" fill="#E8593C"/>
  <circle cx="140" cy="72" r="1.5" fill="#2B4A8C"/>
  <line x1="138" y1="110" x2="152" y2="125" stroke="#AAA" stroke-width="1.5"/>
  <circle cx="155" cy="130" r="10" fill="#C0C0C0"/>
  <circle cx="155" cy="130" r="8.5" fill="#D8D8D8"/>
  <circle cx="155" cy="130" r="7" fill="#E8E8E8"/>
  <text x="155" y="134" text-anchor="middle" font-size="10" font-weight="bold" fill="#666">1F</text>
  <path d="M105 210 L100 228 M100 228 L88 240 M100 228 L100 240 M100 228 L112 240" stroke="#E8943C" stroke-width="4" stroke-linecap="round" fill="none"/>
  <path d="M135 210 L140 228 M140 228 L128 240 M140 228 L140 240 M140 228 L152 240" stroke="#E8943C" stroke-width="4" stroke-linecap="round" fill="none"/>
</svg>
