<svg xmlns="http://www.w3.org/2000/svg" viewBox="0 0 240 260" width="240" height="260">
  <ellipse cx="115" cy="248" rx="55" ry="9" fill="#00000020"/>
  <path d="M55 155 Q15 140 12 95 Q25 115 38 108 Q15 80 22 50 Q35 72 48 65 Q30 45 45 32 Q48 55 62 52 Q52 38 65 30 Q62 50 72 58" fill="#5A9E92" opacity="0.85"/>
  <path d="M52 148 Q20 120 16 85" fill="none" stroke="#4A8E82" stroke-width="2.5"/>
  <path d="M58 142 Q32 108 30 65" fill="none" stroke="#4A8E82" stroke-width="2"/>
  <path d="M56 152 Q22 135 20 100" fill="none" stroke="#8A8A7A" stroke-width="2" opacity="0.5"/>
  <g transform="rotate(3 115 165)">
    <ellipse cx="115" cy="168" rx="48" ry="46" fill="#B8804A"><animate attributeName="ry" values="46;44;46" dur="2.5s" repeatCount="indefinite"/></ellipse>
    <ellipse cx="122" cy="175" rx="34" ry="30" fill="#CCA068"/>
    <path d="M82 158 Q92 152 102 158" fill="none" stroke="#999" stroke-width="1.5" opacity="0.3"/>
    <path d="M85 170 Q95 164 105 170" fill="none" stroke="#999" stroke-width="1.5" opacity="0.3"/>
  </g>
  <ellipse cx="72" cy="165" rx="16" ry="30" fill="#A87040" transform="rotate(-5 72 165)"/>
  <ellipse cx="158" cy="165" rx="16" ry="30" fill="#A87040" transform="rotate(5 158 165)"/>
  <ellipse cx="118" cy="128" rx="24" ry="20" fill="#B8804A"/>
  <circle cx="120" cy="100" r="28" fill="#B8804A"/>
  <path d="M112 122 Q104 145 96 155 Q108 148 114 130" fill="#C44030"/>
  <path d="M114 124 Q108 140 102 150" fill="#B43828"/>
  <ellipse cx="100" cy="152" rx="5" ry="6" fill="#C44030"/>
  <path d="M138 97 L154 102 L138 107 Z" fill="#D8983A"/>
  <g transform="translate(0 4)">
    <rect x="98" y="92" width="18" height="16" rx="3" fill="none" stroke="#555" stroke-width="2.5"/>
    <rect x="120" y="92" width="18" height="16" rx="3" fill="none" stroke="#555" stroke-width="2.5"/>
    <line x1="116" y1="100" x2="120" y2="100" stroke="#555" stroke-width="2"/>
    <line x1="94" y1="100" x2="98" y2="100" stroke="#555" stroke-width="1.5"/>
    <line x1="138" y1="98" x2="148" y2="92" stroke="#555" stroke-width="1.5"/>
  </g>
  <ellipse cx="107" cy="97" rx="4.5" ry="4" fill="white"/>
  <ellipse cx="129" cy="97" rx="4.5" ry="4" fill="white"/>
  <circle cx="108" cy="97.5" r="2.8" fill="#3D352D"/>
  <circle cx="130" cy="97.5" r="2.8" fill="#3D352D"/>
  <circle cx="109" cy="96.5" r="1" fill="white"/>
  <circle cx="131" cy="96.5" r="1" fill="white"/>
  <path d="M98 90 Q103 86 114 89" fill="none" stroke="#7A6A5A" stroke-width="2.5" stroke-linecap="round"/>
  <path d="M122 89 Q132 86 140 90" fill="none" stroke="#7A6A5A" stroke-width="2.5" stroke-linecap="round"/>
  <path d="M106 74 Q96 56 104 46 Q108 56 112 50 Q116 42 120 46 Q118 56 122 58 Q120 66 116 72" fill="#C44030" opacity="0.85"/>
  <path d="M110 52 Q114 46 118 48" fill="none" stroke="#AA6A5A" stroke-width="1.5"/>
  <ellipse cx="116" cy="80" rx="30" ry="10" fill="#3A5A8C"/>
  <path d="M88 80 Q88 64 116 62 Q144 64 144 80" fill="#3A5A8C"/>
  <circle cx="116" cy="64" r="4.5" fill="#3A5A8C"/>
  <circle cx="136" cy="76" r="6" fill="#2A4A7C"/>
  <circle cx="136" cy="76" r="4.5" fill="#E8E8E0"/>
  <circle cx="136" cy="76" r="2.8" fill="#D8645A"/>
  <circle cx="136" cy="76" r="1.3" fill="#3A5A8C"/>
  <line x1="135" y1="115" x2="148" y2="130" stroke="#999" stroke-width="1.5"/>
  <circle cx="152" cy="135" r="10" fill="#B0B0A8"/>
  <circle cx="152" cy="135" r="8.5" fill="#C8C8C0"/>
  <circle cx="152" cy="135" r="7" fill="#D8D8D0"/>
  <text x="152" y="139" text-anchor="middle" font-size="10" font-weight="bold" fill="#777">1F</text>
  <path d="M62 192 Q58 150 60 140" stroke="#8B6B4A" stroke-width="4" stroke-linecap="round" fill="none"/>
  <path d="M60 140 Q55 132 48 132 Q42 132 42 138" stroke="#8B6B4A" stroke-width="4" stroke-linecap="round" fill="none"/>
  <path d="M100 210 L96 228 M96 228 L86 240 M96 228 L96 240 M96 228 L106 240" stroke="#D8883C" stroke-width="3.5" stroke-linecap="round" fill="none"/>
  <path d="M130 210 L134 228 M134 228 L124 240 M134 228 L134 240 M134 228 L144 240" stroke="#D8883C" stroke-width="3.5" stroke-linecap="round" fill="none"/>
</svg>
