<svg xmlns="http://www.w3.org/2000/svg" viewBox="0 0 220 240" width="220" height="240">
  <ellipse cx="110" cy="228" rx="50" ry="9" fill="#00000020"/>
  <path d="M58 145 Q20 130 18 95 Q28 115 38 108 Q18 85 28 60 Q38 85 48 78 Q32 60 45 48 Q48 70 58 75 Q50 55 62 50 Q60 72 68 85" fill="#2A8E80"/>
  <path d="M55 140 Q25 120 22 90" fill="none" stroke="#1E7A6E" stroke-width="2.5"/>
  <path d="M58 135 Q35 105 35 72" fill="none" stroke="#1E7A6E" stroke-width="2"/>
  <ellipse cx="110" cy="158" rx="46" ry="44" fill="#C4834A"><animate attributeName="ry" values="44;42;44" dur="1.8s" repeatCount="indefinite"/></ellipse>
  <ellipse cx="115" cy="168" rx="32" ry="28" fill="#D4975E"/>
  <path d="M78 148 Q88 142 98 148" fill="none" stroke="#B07040" stroke-width="1.5" opacity="0.4"/>
  <path d="M80 160 Q90 154 100 160" fill="none" stroke="#B07040" stroke-width="1.5" opacity="0.4"/>
  <path d="M82 172 Q92 166 102 172" fill="none" stroke="#B07040" stroke-width="1.5" opacity="0.4"/>
  <ellipse cx="68" cy="155" rx="16" ry="28" fill="#B07040" transform="rotate(-8 68 155)"/>
  <ellipse cx="152" cy="155" rx="16" ry="28" fill="#B07040" transform="rotate(8 152 155)"/>
  <ellipse cx="110" cy="120" rx="24" ry="20" fill="#C4834A"/>
  <circle cx="112" cy="95" r="27" fill="#C4834A"/>
  <path d="M106 116 Q102 130 96 136 Q104 132 108 120" fill="#D44A2A"/>
  <path d="M108 118 Q106 128 102 132" fill="#C43A1A"/>
  <path d="M130 96 L145 100 L130 104 Z" fill="#E8A03C"/>
  <path d="M130 100 L142 103 L130 106 Z" fill="#D4902C"/>
  <g transform="rotate(-3 112 94)">
    <rect x="92" y="86" width="18" height="16" rx="4" fill="none" stroke="#333" stroke-width="3"/>
    <rect x="114" y="86" width="18" height="16" rx="4" fill="none" stroke="#333" stroke-width="3"/>
    <line x1="110" y1="94" x2="114" y2="94" stroke="#333" stroke-width="2.5"/>
    <line x1="88" y1="94" x2="92" y2="94" stroke="#333" stroke-width="2"/>
    <line x1="132" y1="92" x2="140" y2="88" stroke="#333" stroke-width="2"/>
  </g>
  <circle cx="101" cy="94" r="4" fill="white"/>
  <circle cx="123" cy="94" r="4" fill="white"/>
  <circle cx="102" cy="94.5" r="2.8" fill="#2D2520"/>
  <circle cx="124" cy="94.5" r="2.8" fill="#2D2520"/>
  <circle cx="103" cy="93.5" r="1" fill="white"/>
  <circle cx="125" cy="93.5" r="1" fill="white"/>
  <path d="M96 70 Q86 48 96 38 Q100 52 104 46 Q106 34 114 32 Q112 48 118 42 Q120 52 118 60 Q116 66 112 72" fill="#D44A2A"/>
  <path d="M100 50 Q106 40 112 38" fill="none" stroke="#C43A1A" stroke-width="1.5"/>
  <g transform="rotate(-8 110 76)">
    <ellipse cx="108" cy="76" rx="30" ry="10" fill="#2B4A8C"/>
    <path d="M80 76 Q80 60 108 58 Q136 60 136 76" fill="#2B4A8C"/>
    <circle cx="108" cy="60" r="4" fill="#2B4A8C"/>
  </g>
  <circle cx="130" cy="72" r="5.5" fill="#1B3A7C"/>
  <circle cx="130" cy="72" r="4" fill="white"/>
  <circle cx="130" cy="72" r="2.5" fill="#E8593C"/>
  <circle cx="130" cy="72" r="1.2" fill="#2B4A8C"/>
  <path d="M95 198 L92 212 M92 212 L82 222 M92 212 L92 222 M92 212 L102 222" stroke="#E8943C" stroke-width="3.5" stroke-linecap="round" fill="none"/>
  <path d="M125 198 L128 212 M128 212 L118 222 M128 212 L128 222 M128 212 L138 222" stroke="#E8943C" stroke-width="3.5" stroke-linecap="round" fill="none"/>
</svg>
