<svg xmlns="http://www.w3.org/2000/svg" viewBox="0 0 200 200" width="200" height="200">
  <ellipse cx="100" cy="185" rx="35" ry="8" fill="#00000020"/>
  <ellipse cx="100" cy="140" rx="38" ry="36" fill="#F5D45A"><animate attributeName="ry" values="36;34;36" dur="2s" repeatCount="indefinite"/></ellipse>
  <ellipse cx="100" cy="150" rx="28" ry="22" fill="#FBE88A"/>
  <ellipse cx="68" cy="138" rx="12" ry="18" fill="#E8C44A" transform="rotate(-15 68 138)"/>
  <ellipse cx="132" cy="138" rx="12" ry="18" fill="#E8C44A" transform="rotate(15 132 138)"/>
  <circle cx="100" cy="105" r="28" fill="#F5D45A"/>
  <circle cx="84" cy="112" r="8" fill="#FBCB6A" opacity="0.6"/>
  <circle cx="116" cy="112" r="8" fill="#FBCB6A" opacity="0.6"/>
  <ellipse cx="90" cy="103" rx="7" ry="8" fill="white"/>
  <ellipse cx="110" cy="103" rx="7" ry="8" fill="white"/>
  <circle cx="92" cy="104" r="4.5" fill="#2D2520"/>
  <circle cx="112" cy="104" r="4.5" fill="#2D2520"/>
  <circle cx="93.5" cy="102.5" r="1.5" fill="white"/>
  <circle cx="113.5" cy="102.5" r="1.5" fill="white"/>
  <path d="M96 112 L100 118 L104 112 Z" fill="#E8943C"/>
  <ellipse cx="100" cy="78" rx="5" ry="4" fill="#D44A2A"/>
  <ellipse cx="100" cy="86" rx="34" ry="12" fill="#2B4A8C"/>
  <path d="M68 86 Q68 72 100 70 Q132 72 132 86" fill="#2B4A8C"/>
  <circle cx="100" cy="72" r="5" fill="#2B4A8C"/>
  <circle cx="118" cy="82" r="5" fill="#1B3A7C"/>
  <circle cx="118" cy="82" r="4" fill="white"/>
  <circle cx="118" cy="82" r="2.5" fill="#E8593C"/>
  <circle cx="118" cy="82" r="1.2" fill="#2B4A8C"/>
  <path d="M88 174 L82 184 M88 174 L88 184 M88 174 L94 184" stroke="#E8943C" stroke-width="2.5" stroke-linecap="round" fill="none"/>
  <path d="M112 174 L106 184 M112 174 L112 184 M112 174 L118 184" stroke="#E8943C" stroke-width="2.5" stroke-linecap="round" fill="none"/>
</svg>
